<?xml version="1.0" encoding="utf-8"?>
<!-- Generator: Adobe Illustrator 25.2.3, SVG Export Plug-In . SVG Version: 6.00 Build 0)  -->
<svg version="1.1" id="Capa_1" xmlns="http://www.w3.org/2000/svg" xmlns:xlink="http://www.w3.org/1999/xlink" x="0px" y="0px"
	 viewBox="0 0 841.89 595.28" style="enable-background:new 0 0 841.89 595.28;" xml:space="preserve">
<style type="text/css">
	.st0{fill:#F1CD00;}
	.st1{fill:#417ABE;}
	.st2{fill:#D0333A;}
</style>
<g>
	<path d="M353.1,271.67l-8.56-26.66l-8.81,26.66H353.1z M335.08,236.37h18.94l19.35,58.14h-12.87l-3.74-11.55h-24.67l-3.82,11.55
		h-12.96L335.08,236.37z"/>
	<polygon points="379.68,236.37 399.61,236.37 419.21,282.55 419.13,236.37 431.34,236.37 431.34,294.51 411.99,294.51 
		391.88,246.83 391.88,294.51 379.68,294.51 	"/>
	<g>
		<path d="M463.98,282.96c3.49,0,6.56-0.76,9.22-2.28c2.66-1.52,4.72-3.63,6.19-6.31c1.47-2.69,2.2-5.66,2.2-8.93
			c0-3.38-0.73-6.39-2.2-9.05c-1.47-2.66-3.54-4.74-6.23-6.23c-2.69-1.5-5.75-2.24-9.18-2.24h-9.47v35.05H463.98z M441.97,236.28
			h22.01c5.43,0,10.41,1.29,14.95,3.86c4.54,2.57,8.15,6.09,10.84,10.55c2.69,4.46,4.03,9.37,4.03,14.74
			c0,5.37-1.31,10.29-3.94,14.74c-2.63,4.46-6.23,7.97-10.8,10.55c-4.57,2.57-9.59,3.86-15.08,3.86h-22.01V236.28z"/>
		<path d="M531,283.55c3.27,0,6.22-0.8,8.84-2.41c2.63-1.6,4.69-3.79,6.19-6.56c1.5-2.77,2.24-5.79,2.24-9.05
			c0-3.27-0.75-6.29-2.24-9.05c-1.5-2.77-3.56-4.97-6.19-6.6c-2.63-1.63-5.58-2.45-8.84-2.45c-3.21,0-6.15,0.82-8.81,2.45
			c-2.66,1.64-4.73,3.83-6.23,6.6c-1.5,2.77-2.24,5.79-2.24,9.05c0,3.27,0.75,6.28,2.24,9.05c1.5,2.77,3.56,4.96,6.19,6.56
			C524.79,282.74,527.74,283.55,531,283.55 M531,295.17c-5.37,0-10.33-1.33-14.87-3.99c-4.54-2.66-8.15-6.26-10.84-10.8
			c-2.69-4.54-4.03-9.5-4.03-14.87c0-5.37,1.34-10.33,4.03-14.87c2.69-4.54,6.3-8.15,10.84-10.84c4.54-2.68,9.49-4.03,14.87-4.03
			c5.37,0,10.33,1.34,14.87,4.03c4.54,2.69,8.15,6.3,10.84,10.84c2.69,4.54,4.03,9.5,4.03,14.87c0,5.37-1.33,10.33-3.99,14.87
			c-2.65,4.54-6.27,8.14-10.84,10.8C541.34,293.84,536.37,295.17,531,295.17"/>
		<path d="M594.7,264.61c2.38,0,4.4-0.83,6.06-2.49c1.66-1.66,2.49-3.68,2.49-6.06c0-2.38-0.83-4.39-2.49-6.02
			c-1.66-1.63-3.68-2.45-6.06-2.45h-13.12v17.03H594.7z M569.04,236.37h25.66c3.77,0,7.21,0.91,10.34,2.74
			c3.12,1.83,5.62,4.29,7.47,7.39c1.85,3.1,2.78,6.42,2.78,9.97c0,2.49-0.48,4.89-1.45,7.18c-0.97,2.3-2.34,4.33-4.11,6.1
			c-1.77,1.77-3.79,3.13-6.06,4.07l12.46,20.68h-13.29l-11.55-19.1h-9.72v19.1h-12.54V236.37z"/>
		<path d="M650.52,264.61c2.38,0,4.4-0.83,6.06-2.49c1.66-1.66,2.49-3.68,2.49-6.06c0-2.38-0.83-4.39-2.49-6.02
			c-1.66-1.63-3.68-2.45-6.06-2.45h-13.12v17.03H650.52z M624.85,236.37h25.66c3.77,0,7.21,0.91,10.34,2.74
			c3.12,1.83,5.62,4.29,7.47,7.39c1.85,3.1,2.78,6.42,2.78,9.97c0,2.49-0.48,4.89-1.45,7.18c-0.97,2.3-2.34,4.33-4.11,6.1
			c-1.77,1.77-3.79,3.13-6.06,4.07l12.46,20.68h-13.29l-11.55-19.1h-9.72v19.1h-12.54V236.37z"/>
	</g>
	<path d="M713.72,271.67l-8.56-26.66l-8.81,26.66H713.72z M695.7,236.37h18.94l19.35,58.14h-12.87l-3.74-11.55h-24.67l-3.82,11.55
		h-12.96L695.7,236.37z"/>
	<g>
		<path class="st0" d="M331.02,352.69c3.28,0,6.19-0.72,8.75-2.17c2.56-1.44,4.55-3.44,5.97-6c1.42-2.56,2.13-5.39,2.13-8.49
			c0-3.19-0.72-6.06-2.17-8.59c-1.44-2.53-3.44-4.53-6-5.97c-2.56-1.44-5.45-2.16-8.69-2.16h-9.05v33.37H331.02z M315.21,313.02
			h15.8c4.33,0,8.27,1.01,11.84,3.02c3.56,2.01,6.4,4.78,8.52,8.29c2.12,3.52,3.18,7.42,3.18,11.71c0,4.28-1.04,8.19-3.11,11.71
			c-2.08,3.52-4.91,6.28-8.49,8.29c-3.59,2.01-7.56,3.01-11.93,3.01h-15.8V313.02z"/>
	</g>
	<rect x="363.67" y="313.08" class="st0" width="6.82" height="45.9"/>
	<g>
		<path class="st0" d="M402.95,359.51c-4.28,0-8.19-1.05-11.71-3.15c-3.52-2.1-6.32-4.95-8.39-8.56s-3.11-7.53-3.11-11.77
			c0-4.24,1.04-8.17,3.11-11.77c2.07-3.61,4.88-6.46,8.42-8.56c3.54-2.1,7.43-3.15,11.67-3.15c4.72,0,8.92,1.3,12.59,3.9
			c3.67,2.6,6.43,6.06,8.26,10.39l-6.62,1.71c-1.27-2.97-3.15-5.3-5.64-6.98c-2.49-1.68-5.36-2.52-8.59-2.52
			c-3.11,0-5.91,0.75-8.43,2.26c-2.52,1.51-4.48,3.56-5.9,6.16c-1.42,2.6-2.13,5.45-2.13,8.56c0,3.1,0.71,5.96,2.13,8.56
			c1.42,2.6,3.39,4.66,5.9,6.16c2.51,1.51,5.32,2.26,8.43,2.26c2.58,0,4.93-0.54,7.05-1.61c2.12-1.07,3.89-2.59,5.31-4.55
			c1.42-1.97,2.39-4.26,2.92-6.89l-15.28,0.07l-0.07-5.77h22.03v2.36c0,4.33-0.94,8.23-2.82,11.71c-1.88,3.48-4.49,6.21-7.83,8.2
			C410.91,358.51,407.14,359.51,402.95,359.51"/>
	</g>
	<rect x="434.09" y="313.08" class="st0" width="6.82" height="45.9"/>
	<polygon class="st0" points="465.3,319.38 450.02,319.38 450.02,313.08 486.81,313.08 486.81,319.38 472.06,319.38 472.06,358.98 
		465.3,358.98 	"/>
	<path class="st0" d="M519.2,342.33l-9.12-25.9l-9.24,25.9H519.2z M504.58,313.08h11.08l16.39,45.9h-7.01l-3.81-10.49h-22.43
		l-3.94,10.49h-7.01L504.58,313.08z"/>
	<polygon class="st0" points="540.05,313.08 546.8,313.08 546.8,352.69 569.56,352.69 569.56,358.98 540.05,358.98 	"/>
	<polygon class="st1" points="147.82,213.15 107.9,236.19 107.9,282.27 147.82,259.23 187.73,282.27 187.72,236.19 	"/>
	<polygon class="st0" points="254.25,274.59 214.34,251.55 214.34,297.64 174.43,320.68 214.34,343.72 254.25,320.68 	"/>
	<polygon class="st2" points="147.82,289.96 107.9,313 107.9,359.09 147.82,382.13 187.73,359.08 147.82,336.04 	"/>
</g>
</svg>
